# xmcd
#
# Track frame offsets:
#	150
#	24213
#	60929
#	86501
#	121815
#	157607
#	183894
#
# Disc length: 2872 seconds
#
# Revision: 2
# Processed by: cddbd v1.5.1PL2 Copyright (c) Steve Scherf et al.
# Submitted via: EasyCDDAExtractor 8.0.2.1
#
DISCID=3b0b3607
DTITLE=DIO - Worgl 02-08-04 Disc 2
DYEAR=2004
DGENRE=Hard Rock
TTITLE0=Rock 'N Roll Children
TTITLE1=Gates Of Babylon
TTITLE2=Holy Diver
TTITLE3=Heaven And Hell
TTITLE4=The Last In Line
TTITLE5=Rainbow In The Dark
TTITLE6=We Rock
EXTD=
EXTT0=
EXTT1=
EXTT2=
EXTT3=
EXTT4=
EXTT5=
EXTT6=
PLAYORDER=
